<svg xmlns="http://www.w3.org/2000/svg" viewBox="0 0 64 64"><path fill-rule="evenodd" d="M32.01 56.02h0C18.72 55.99 7.98 45.2 8 31.92c.01-7.77 3.78-15.06 10.11-19.56v0c.9-.63 2.15-.41 2.78.5 .62.9.4 2.15-.51 2.78l0-.001c-9 6.4-11.1 18.89-4.69 27.89 6.4 8.99 18.89 11.09 27.89 4.68 8.99-6.41 11.09-18.9 4.68-27.9 -1.3-1.82-2.88-3.4-4.69-4.69l0 0c-.91-.63-1.14-1.88-.51-2.79 .62-.91 1.87-1.14 2.78-.51v0C56.66 20 59.2 35.029 51.5 45.84c-4.51 6.33-11.79 10.09-19.56 10.11Zm0-26.01v0c-1.11 0-2-.9-2-2v-22 0c0-1.11.89-2 2-2 1.1 0 2 .89 2 2v22 0c0 1.1-.9 2-2 2Z" fill="#D44C47" /></svg>